<svg xmlns="http://www.w3.org/2000/svg" xmlns:xlink="http://www.w3.org/1999/xlink" width="16" height="16" viewBox="0 0 16 16" version="1.1">
    <g id="symbols-🔗" stroke="none" stroke-width="1" fill="none" fill-rule="evenodd">
        <g id="desktop/footer" transform="translate(-85.000000, -772.000000)" fill="#FFFFFF">
            <g id="footer">
                <g id="Group-8" transform="translate(0.000000, 730.000000)">
                    <g id="Group-7" transform="translate(85.000000, 42.000000)">
                        <g id="facebook">
                            <path d="M16,8 C16,3.58064516 12.4193548,0 8,0 C3.58064516,0 0,3.58064516 0,8 C0,11.9929032 2.92548387,15.3025806 6.75,15.9032258 L6.75,10.3125806 L4.71774194,10.3125806 L4.71774194,8 L6.75,8 L6.75,6.23741935 C6.75,4.23258065 7.94354839,3.12516129 9.7716129,3.12516129 C10.6470968,3.12516129 11.5625806,3.28129032 11.5625806,3.28129032 L11.5625806,5.24903226 L10.5535484,5.24903226 C9.56,5.24903226 9.25,5.86580645 9.25,6.4983871 L9.25,8 L11.4687097,8 L11.113871,10.3125806 L9.25,10.3125806 L9.25,15.9032258 C13.0745161,15.3025806 16,11.9929032 16,8 Z" id="Path"/>
                        </g>
                    </g>
                </g>
            </g>
        </g>
    </g>
</svg>